<svg xmlns="http://www.w3.org/2000/svg" viewBox="0 0 85.49 122.45"><title>load</title><path d="M67.25,122.45H5.63A5.64,5.64,0,0,1,0,116.82V23.35a5.64,5.64,0,0,1,5.63-5.63H20.8a2,2,0,0,1,0,4H5.63A1.63,1.63,0,0,0,4,23.35v93.47a1.63,1.63,0,0,0,1.63,1.63H67.25a1.63,1.63,0,0,0,1.16-.48L81,105.37a1.64,1.64,0,0,0,.48-1.15V23.35a1.63,1.63,0,0,0-1.63-1.63H64.68a2,2,0,0,1,0-4H79.86a5.64,5.64,0,0,1,5.63,5.63v80.87a5.62,5.62,0,0,1-1.65,4L71.23,120.8A5.59,5.59,0,0,1,67.25,122.45Z" fill="#37474f"/><path d="M62.55,19.72" fill="#37474f" stroke="#231f20" stroke-linecap="round" stroke-linejoin="round" stroke-width="4"/><path d="M22.94,19.72" fill="#37474f" stroke="#231f20" stroke-linecap="round" stroke-linejoin="round" stroke-width="4"/><path d="M68.76,121.74a2,2,0,0,1-2-2V109.35a5.64,5.64,0,0,1,5.63-5.63H82.77a2,2,0,1,1,0,4H72.39a1.63,1.63,0,0,0-1.63,1.63v10.39A2,2,0,0,1,68.76,121.74Z" fill="#37474f"/><path d="M42.74,7.13" fill="#37474f" stroke="#fff" stroke-linecap="round" stroke-linejoin="round" stroke-width="1.43"/><line x1="35.42" y1="18.65" x2="50.07" y2="18.65" fill="#37474f"/><path d="M56.67,12.59H52.56v6.06a2.48,2.48,0,0,1-2.49,2.49H35.42a2.49,2.49,0,0,1-2.5-2.49V12.59H28.81a3,3,0,0,0-3,3v7.76a3,3,0,0,0,3,3H56.67a3,3,0,0,0,3-3V15.6A3,3,0,0,0,56.67,12.59Z" fill="#37474f"/><path d="M56.67,26.78H28.81a3.42,3.42,0,0,1-3.41-3.42V15.6a3.41,3.41,0,0,1,3.41-3.41h4.11a.4.4,0,0,1,.41.4v6.06a2.1,2.1,0,0,0,2.09,2.09H50.07a2.1,2.1,0,0,0,2.09-2.09V12.59a.4.4,0,0,1,.4-.4h4.11a3.42,3.42,0,0,1,3.42,3.41v7.76A3.42,3.42,0,0,1,56.67,26.78ZM28.81,13a2.61,2.61,0,0,0-2.6,2.6v7.76A2.61,2.61,0,0,0,28.81,26H56.67a2.61,2.61,0,0,0,2.61-2.61V15.6A2.61,2.61,0,0,0,56.67,13H53v5.65a2.9,2.9,0,0,1-2.9,2.9H35.42a2.9,2.9,0,0,1-2.9-2.9V13Z" fill="#37474f"/><rect x="37.91" y="12.59" width="9.66" height="3.56" fill="#37474f"/><path d="M47.58,16.56H37.91a.4.4,0,0,1-.4-.4V12.59a.4.4,0,0,1,.4-.4h9.67a.4.4,0,0,1,.4.4v3.57A.4.4,0,0,1,47.58,16.56Zm-9.26-.81h8.85V13H38.32Z" fill="#37474f"/><path d="M42.74,0a7.33,7.33,0,0,0-7.32,7.33V18.65H50.07V7.33A7.33,7.33,0,0,0,42.74,0Zm0,12.32a3,3,0,1,1,3-3A3,3,0,0,1,42.74,12.32Z" fill="#37474f"/><path d="M22.21,61.85,42.79,41.27,63.28,61.85H54.53V77.28H31V61.85ZM54.53,81.5h0V89H31V81.5ZM31,93.28H54.53v5.61H31V93.28Z" fill="#37474f" fill-rule="evenodd"/></svg>