<?xml version="1.0" encoding="iso-8859-1"?>
<!-- Generator: Adobe Illustrator 23.1.0, SVG Export Plug-In . SVG Version: 6.00 Build 0)  -->
<svg version="1.1" baseProfile="tiny" id="objects" xmlns="http://www.w3.org/2000/svg" xmlns:xlink="http://www.w3.org/1999/xlink"
	 x="0px" y="0px" width="85.487px" height="122.449px" viewBox="0 0 85.487 122.449" xml:space="preserve">
<g>
	<g>
		<path fill="#37474F" d="M67.254,122.449H5.63c-3.104,0-5.63-2.525-5.63-5.63V23.348c0-3.104,2.526-5.63,5.63-5.63h15.172
			c1.104,0,2,0.896,2,2s-0.896,2-2,2H5.63c-0.899,0-1.63,0.732-1.63,1.63v93.471c0,0.898,0.731,1.63,1.63,1.63h61.624
			c0.435,0,0.845-0.17,1.153-0.477l12.603-12.603c0.304-0.304,0.478-0.724,0.478-1.153V23.348c0-0.898-0.731-1.63-1.63-1.63H64.685
			c-1.105,0-2-0.896-2-2s0.896-2,2-2h15.172c3.104,0,5.63,2.525,5.63,5.63v80.867c0,1.505-0.586,2.919-1.65,3.982L71.235,120.8
			C70.171,121.863,68.758,122.449,67.254,122.449z"/>
	</g>
	<g>
		
			<path fill="#37474F" stroke="#231F20" stroke-width="4" stroke-linecap="round" stroke-linejoin="round" stroke-miterlimit="10" d="
			M62.546,19.719"/>
	</g>
	<g>
		
			<path fill="#37474F" stroke="#231F20" stroke-width="4" stroke-linecap="round" stroke-linejoin="round" stroke-miterlimit="10" d="
			M22.94,19.719"/>
	</g>
	<g>
		<path fill="#37474F" d="M68.758,121.736c-1.104,0-2-0.896-2-2V109.35c0-3.104,2.525-5.63,5.63-5.63h10.387c1.104,0,2,0.896,2,2
			s-0.896,2-2,2H72.388c-0.899,0-1.63,0.732-1.63,1.63v10.387C70.758,120.841,69.862,121.736,68.758,121.736z"/>
	</g>
</g>
<g>
	
		<path fill="#37474F" stroke="#FFFFFF" stroke-width="1.4254" stroke-linecap="round" stroke-linejoin="round" stroke-miterlimit="10" d="
		M42.744,7.127"/>
</g>
<g>
	<line fill="#37474F" x1="35.417" y1="18.649" x2="50.07" y2="18.649"/>
</g>
<g>
	<g>
		<path fill="#37474F" d="M56.674,12.591h-4.11v6.058c0,1.377-1.117,2.495-2.495,2.495H35.417c-1.378,0-2.494-1.117-2.494-2.495
			v-6.058h-4.11c-1.664,0-3.012,1.349-3.012,3.012v7.755c0,1.664,1.349,3.012,3.012,3.012h27.862c1.664,0,3.012-1.349,3.012-3.012
			v-7.755C59.687,13.94,58.338,12.591,56.674,12.591z"/>
		<path fill="#37474F" d="M56.674,26.776H28.813c-1.884,0-3.417-1.533-3.417-3.418v-7.755c0-1.884,1.533-3.417,3.417-3.417h4.109
			c0.224,0,0.405,0.182,0.405,0.405v6.058c0,1.151,0.937,2.089,2.089,2.089H50.07c1.152,0,2.089-0.938,2.089-2.089v-6.058
			c0-0.224,0.182-0.405,0.405-0.405h4.11c1.884,0,3.417,1.533,3.417,3.417v7.755C60.092,25.243,58.559,26.776,56.674,26.776z
			 M28.813,12.997c-1.438,0-2.607,1.169-2.607,2.606v7.755c0,1.438,1.169,2.607,2.607,2.607h27.861c1.438,0,2.607-1.17,2.607-2.607
			v-7.755c0-1.438-1.169-2.606-2.607-2.606H52.97v5.652c0,1.599-1.301,2.899-2.899,2.899H35.417c-1.599,0-2.9-1.301-2.9-2.899
			v-5.652H28.813z"/>
	</g>
	<g>
		<rect x="37.911" y="12.591" fill="#37474F" width="9.664" height="3.563"/>
		<path fill="#37474F" d="M47.576,16.56h-9.664c-0.224,0-0.405-0.182-0.405-0.405v-3.563c0-0.224,0.182-0.405,0.405-0.405h9.664
			c0.224,0,0.405,0.182,0.405,0.405v3.563C47.981,16.379,47.799,16.56,47.576,16.56z M38.317,15.75h8.854v-2.753h-8.854V15.75z"/>
	</g>
</g>
<g>
	<path fill="#37474F" d="M42.744,0c-4.046,0-7.327,3.28-7.327,7.326v11.323H50.07V7.326C50.07,3.28,46.79,0,42.744,0z
		 M42.744,12.319c-1.654,0-2.994-1.341-2.994-2.994s1.34-2.994,2.994-2.994c1.654,0,2.994,1.341,2.994,2.994
		S44.397,12.319,42.744,12.319z"/>
</g>
<path id="Arrow_Up" display="none" fill-rule="evenodd" fill="#37474F" d="M22.212,61.85l20.576-20.576L63.276,61.85h-8.742v15.426
	H30.979V61.85H22.212L22.212,61.85z M54.534,81.501L54.534,81.501v7.496H30.979v-7.496H54.534L54.534,81.501z M30.979,93.28
	L30.979,93.28h23.555v5.613H30.979V93.28L30.979,93.28z"/>
<path id="Arrow_Down" fill-rule="evenodd" fill="#37474F" d="M63.276,78.317L42.7,98.893L22.212,78.317h8.742V62.891h23.555v15.426
	H63.276L63.276,78.317z M30.954,58.667L30.954,58.667v-7.496h23.555v7.496H30.954L30.954,58.667z M54.508,46.888L54.508,46.888
	H30.954v-5.613h23.555V46.888L54.508,46.888z"/>
<path id="Trash" display="none" fill="#37474F" d="M58.067,51.408H27.42c-2.821,0-5.108,2.286-5.108,5.108v1.702h40.862v-1.702
	C63.175,53.695,60.888,51.408,58.067,51.408z M49.145,48.003l0.751,5.373H35.591l0.751-5.373H49.145 M49.554,44.598H35.933
	c-1.404,0-2.712,1.139-2.907,2.53l-0.996,7.124c-0.195,1.392,0.796,2.529,2.2,2.529h17.026c1.404,0,2.395-1.138,2.2-2.529
	l-0.996-7.124C52.267,45.737,50.958,44.598,49.554,44.598L49.554,44.598z M58.918,61.623H26.569c-1.873,0-3.267,1.527-3.097,3.392
	L26.26,95.69c0.17,1.865,1.841,3.391,3.714,3.391h25.538c1.873,0,3.544-1.525,3.714-3.391l2.788-30.675
	C62.185,63.151,60.791,61.623,58.918,61.623z M35.933,92.27h-5.107l-1.703-23.836h6.81V92.27z M46.149,92.27h-6.81V68.434h6.81
	V92.27z M54.662,92.27h-5.107V68.434h6.81L54.662,92.27z"/>
</svg>
